<svg width="16" height="16" viewBox="0 0 16 16" fill="none" xmlns="http://www.w3.org/2000/svg">
<path d="M15.1168 0H0.8832C0.3952 0 0 0.3952 0 0.8832V15.1176C0 15.6048 0.3952 16 0.8832 16H8.5472V9.804H6.4608V7.3896H8.5456V5.608C8.5456 3.5416 9.808 2.416 11.652 2.416C12.5352 2.416 13.2936 2.4816 13.5152 2.5112V4.6712H12.2368C11.2336 4.6712 11.04 5.1488 11.04 5.8472V7.3896H13.4312L13.1192 9.804H11.0392V16H15.1176C15.604 16 15.9992 15.6048 15.9992 15.1168V0.8832C16 0.3952 15.6048 0 15.1168 0Z" fill="#4F7DF3"/>
</svg>
