<svg width="18" height="14" viewBox="0 0 18 14" fill="none" xmlns="http://www.w3.org/2000/svg">
<path d="M18 1.6573C17.3259 1.94325 16.6109 2.13082 15.8787 2.21375C16.6501 1.77239 17.2273 1.07733 17.5023 0.258417C16.7776 0.670119 15.9847 0.960273 15.1578 1.11635C14.8124 0.763415 14.3949 0.482198 13.9312 0.290158C13.4675 0.0981186 12.9675 -0.000643666 12.4623 3.15671e-06C10.0773 3.15671e-06 8.3259 2.12933 8.8641 4.33877C7.39594 4.26866 5.95961 3.90382 4.64834 3.26794C3.33707 2.63206 2.18019 1.73934 1.2528 0.64776C0.780969 1.42599 0.63653 2.347 0.84885 3.22352C1.06117 4.10003 1.61431 4.86626 2.3958 5.36639C1.80956 5.34884 1.2362 5.19733 0.7236 4.92451C0.6831 6.56113 1.9098 8.09352 3.6855 8.43463C3.14164 8.57596 2.57125 8.59658 2.0178 8.49492C2.25361 9.19719 2.71295 9.81132 3.33151 10.2514C3.95007 10.6914 4.69691 10.9353 5.4675 10.949C3.91951 12.1107 1.9531 12.6371 0 12.4125C1.68865 13.4508 3.6539 14.0019 5.661 14C12.5172 14 16.3908 8.45788 16.1577 3.48687C16.8803 2.98643 17.5042 2.36691 18 1.6573Z" fill="#4F7DF3"/>
</svg>
